# xmcd
#
# Track frame offsets: 
#        150
#        31742
#        70598
#        85240
#        104722
#        124616
#
# Disc length: 2019 seconds
#
# Revision: 0
# Processed by: cddbd v1.5.2PL0 Copyright (c) Steve Scherf et al.
# Submitted via: ExactAudioCopy v1.0b4
#
DISCID=4507e106
DTITLE=Jimi Hendrix - Isle Of Wight (LP)
DYEAR=1971
DGENRE=Blues
TTITLE0=Midnight Lightning
TTITLE1=Foxy Lady
TTITLE2=Lover Man
TTITLE3=Freedom
TTITLE4=All Along The Watchtower
TTITLE5=In From The Storm
EXTD=
EXTT0=
EXTT1=
EXTT2=
EXTT3=
EXTT4=
EXTT5=
PLAYORDER=
